<svg xmlns="http://www.w3.org/2000/svg" viewBox="0 0 400 300" width="406" height="306" class="illustration styles_illustrationTablet__1DWOa"><g id="_416_ice_cream_outline" data-name="#416_ice_cream_outline"><path d="M139.58,145.75a18.44,18.44,0,0,1,12-17.82c-2.8-3-3.21-7.67-2.28-11.69,2.12-9.21,9.08-13.42,17.17-16.56-3.23-5.4,2-13.2,6.84-15.9,3.17-1.78,6.91-2.42,10-4.33,4.78-3,9.89-12.29.89-13.52-3.2-.43-6.38,1.34-8.43,3.83A10.3,10.3,0,0,1,176.91,59c6.51-8.15,21.72-.37,27.55,5.26A28.65,28.65,0,0,1,213,87c5.36-1.83,11.09-3.68,16.58-2.3,3.93,1,7.28,3.54,10.15,6.4,4.43,4.42,8.05,9.94,9,16.13s-1.23,13.08-6.38,16.65c5.95-4.13,15.46,3.52,17.33,8.89,2,5.85.05,15.3-3.41,20.19s-8.76,8.06-14.43,9.74c-8.14,2.41-15.44,1-23.56.8-9.34-.24-18.68-.49-28-.67l-24.82-.48c-4.7-.09-10.86.9-15.33-.9C144.21,159.1,139.88,151.84,139.58,145.75Z" fill="#fff"></path><path d="M231.23,165.11c-2.41,0-4.81-.15-7.27-.31-1.87-.11-3.81-.24-5.76-.29l-.77,0c-8.93-.23-18.16-.48-27.23-.65l-24.82-.48c-1.25,0-2.62,0-4.06.09-3.83.15-8.18.33-11.63-1.06-6.57-2.65-10.81-10.51-11.11-16.59A19.58,19.58,0,0,1,150,127.5c-2-3-2.64-7.13-1.63-11.49,2.2-9.57,9.57-14,16.76-16.86a9.28,9.28,0,0,1-.23-6,18.05,18.05,0,0,1,8-10.27,31.34,31.34,0,0,1,4.91-2.09,26.62,26.62,0,0,0,5.06-2.22c2.88-1.78,5.88-6.17,5.28-9-.31-1.48-1.66-2.4-4-2.72-3.09-.42-5.91,1.52-7.52,3.47a.94.94,0,0,1-.88.36,1,1,0,0,1-.79-.54,11.26,11.26,0,0,1,1.26-11.85A10.44,10.44,0,0,1,184,54.49c7.63-.52,17,5,21.18,9a29.5,29.5,0,0,1,8.9,22.06c4.72-1.58,10.33-3.19,15.74-1.84,3.54.89,7,3.07,10.61,6.66,5.2,5.19,8.4,11,9.27,16.69A19.24,19.24,0,0,1,246,121.71a11,11,0,0,1,3.52.57c4.66,1.52,9.6,6.08,11,10.17,2.21,6.37-.09,16.23-3.53,21.1a27.82,27.82,0,0,1-15,10.12A37.09,37.09,0,0,1,231.23,165.11Zm-66.49-3.76h.68l24.81.48c9.09.17,18.32.42,27.25.65l.77,0c2,.06,3.95.18,5.83.3,5.88.37,11.43.72,17.42-1.06s10.89-5.08,13.9-9.35c3.16-4.47,5.23-13.67,3.28-19.29-1.08-3.13-5.26-7.46-9.75-8.93a6.58,6.58,0,0,0-6.05.53h0a1,1,0,0,1-1.14-1.64h0c4.51-3.14,6.91-9.44,6-15.68-1-6.7-5.29-12.17-8.71-15.58s-6.5-5.33-9.68-6.13c-5.38-1.35-11.28.66-16,2.28a1,1,0,0,1-.94-.16,1,1,0,0,1-.38-.88,27.44,27.44,0,0,0-8.2-22C200,61.28,191.05,56,184.1,56.48a8.51,8.51,0,0,0-6.41,3.13,9.36,9.36,0,0,0-1.58,8.31,10.22,10.22,0,0,1,8.21-3c4.08.56,5.35,2.64,5.7,4.28.8,3.78-2.62,8.88-6.19,11.08a29,29,0,0,1-5.43,2.4,29.43,29.43,0,0,0-4.61,2,16.12,16.12,0,0,0-7,9,6.85,6.85,0,0,0,.54,5.47,1,1,0,0,1,.08.83,1,1,0,0,1-.58.61c-7.36,2.86-14.47,6.76-16.55,15.85-1,4.3-.23,8.33,2,10.79a1,1,0,0,1-.4,1.63,17.47,17.47,0,0,0-11.33,16.83h0c.27,5.32,4.12,12.5,9.87,14.82,3.05,1.23,7,1.07,10.8.92C162.46,161.4,163.62,161.35,164.74,161.35Z" fill="#093f68"></path><path d="M220.34,244.54h0a39.2,39.2,0,0,1-17-31.93v-7.49H194.9v7.49a39.2,39.2,0,0,1-17,31.93h42.44Z" fill="#cbc0ff"></path><path d="M220.34,245.54H177.9a1,1,0,0,1-.57-1.81,38.46,38.46,0,0,0,16.57-31.12v-7.49a1,1,0,0,1,1-1h8.44a1,1,0,0,1,1,1v7.49a38.46,38.46,0,0,0,16.57,31.12,1,1,0,0,1-.57,1.81Zm-39.47-2h36.5a40.21,40.21,0,0,1-15-30.93v-6.49H195.9v6.49A40.21,40.21,0,0,1,180.87,243.54Z" fill="#093f68"></path><rect x="145.44" y="158.95" width="107.37" height="10.19" rx="5.1" fill="#cbc0ff"></rect><path d="M247.71,170.14H150.53a6.1,6.1,0,0,1,0-12.19h97.18a6.1,6.1,0,0,1,0,12.19ZM150.53,160a4.1,4.1,0,0,0,0,8.19h97.18a4.1,4.1,0,0,0,0-8.19Z" fill="#093f68"></path><path d="M191.61,142.34h-1.15a1,1,0,0,1-1-1,1,1,0,0,1,1-1h1.11c24.21,0,49.86-17.11,50.12-17.28a1,1,0,0,1,1.12,1.66C242.6,124.9,216.45,142.34,191.61,142.34Z" fill="#093f68"></path><circle cx="215.16" cy="94.32" r="14.74" fill="#f56132"></circle><path d="M215.16,110.06A15.74,15.74,0,1,1,230.9,94.32,15.76,15.76,0,0,1,215.16,110.06Zm0-29.48A13.74,13.74,0,1,0,228.9,94.32,13.76,13.76,0,0,0,215.16,80.58Z" fill="#093f68"></path><path d="M219.2,87.9a1,1,0,0,1-.34-.06,1,1,0,0,1-.59-1.29c.06-.18,6.84-18,21.56-15.46a1,1,0,1,1-.34,2c-13.1-2.28-19.29,14-19.35,14.19A1,1,0,0,1,219.2,87.9Z" fill="#093f68"></path><path d="M222,92.41a1,1,0,0,1-1-.77c-1.14-4.69-5.27-5.44-8.54-5.25h-.25a1,1,0,0,1,0-2h.14c5.6-.34,9.47,2.14,10.6,6.78a1,1,0,0,1-.73,1.21A1,1,0,0,1,222,92.41Z" fill="#093f68"></path><path d="M248.58,169.14c0,28.72-22.14,52-49.46,52s-49.46-23.27-49.46-52Z" fill="#cbc0ff"></path><path d="M199.12,222.13c-27.83,0-50.46-23.77-50.46-53a1,1,0,0,1,1-1h98.92a1,1,0,0,1,1,1C249.58,198.36,226.94,222.13,199.12,222.13Zm-48.45-52c.51,27.66,22.05,50,48.45,50s47.94-22.33,48.45-50Z" fill="#093f68"></path><path d="M234,169.14c0,28.72-15.62,52-34.88,52s-34.88-23.27-34.88-52Z" fill="#cbc0ff"></path><path d="M199.12,222.13c-19.79,0-35.88-23.77-35.88-53a1,1,0,0,1,1-1H234a1,1,0,0,1,1,1C235,198.36,218.9,222.13,199.12,222.13Zm-33.88-52c.36,27.66,15.42,50,33.88,50s33.52-22.33,33.88-50Z" fill="#093f68"></path><path d="M211.68,169.14c0,28.72-5.62,52-12.56,52s-12.56-23.27-12.56-52Z" fill="#cbc0ff"></path><path d="M199.12,222.13c-5,0-8.09-8.7-9.85-16-2.39-9.89-3.71-23-3.71-37a1,1,0,0,1,1-1h25.12a1,1,0,0,1,1,1c0,14-1.32,27.11-3.71,37C207.21,213.43,204.07,222.13,199.12,222.13Zm-11.56-52c.13,29.52,6.15,50,11.56,50s11.42-20.47,11.56-50Z" fill="#093f68"></path><path d="M179.58,135.54a66.18,66.18,0,0,1-28.49-6.73,1,1,0,1,1,1-1.76c.19.11,20.06,10.71,41.35,4.6a1,1,0,1,1,.55,1.93A52.26,52.26,0,0,1,179.58,135.54Z" fill="#093f68"></path><path d="M182.38,106.39c-9.28,0-16.24-5.68-16.56-5.94a1,1,0,0,1,1.28-1.54c.08.06,8.15,6.63,18,5.3a1,1,0,1,1,.26,2A21.73,21.73,0,0,1,182.38,106.39Z" fill="#093f68"></path><path d="M215.16,124.89a1,1,0,0,1-.51-1.86l8.64-5.17a1,1,0,0,1,1.37.34,1,1,0,0,1-.34,1.38l-8.64,5.17A1.07,1.07,0,0,1,215.16,124.89Z" fill="#ffbc0e"></path><path d="M172.62,146.18a1,1,0,0,1-.38-.07l-9.35-3.86a1,1,0,0,1-.55-1.3,1,1,0,0,1,1.31-.55l9.35,3.86a1,1,0,0,1-.38,1.92Z" fill="#ffbc0e"></path><path d="M172.62,119.72a1,1,0,0,1-.3-2L183,114.39a1,1,0,1,1,.6,1.9l-10.64,3.38A1,1,0,0,1,172.62,119.72Z" fill="#ffbc0e"></path><path d="M190.48,90.44a1,1,0,0,1-.72-.31l-3.92-4.08a1,1,0,0,1,1.44-1.39l3.93,4.08a1,1,0,0,1,0,1.42A1.05,1.05,0,0,1,190.48,90.44Z" fill="#ffbc0e"></path><path d="M235.35,146.18a1,1,0,0,1-1-.85,47.67,47.67,0,0,0-2.74-7.34,1,1,0,0,1,1.82-.82c.27.59,2.6,5.82,2.9,7.87a1,1,0,0,1-.85,1.13Z" fill="#ffbc0e"></path><path d="M208.08,153.14a1.09,1.09,0,0,1-.39-.08L198,149a1,1,0,0,1,.77-1.85l9.67,4a1,1,0,0,1-.39,1.93Z" fill="#ffbc0e"></path><path d="M200.42,126.76a1,1,0,0,1-.72-.31L194.46,121a1,1,0,1,1,1.44-1.39l5.24,5.44a1,1,0,0,1,0,1.42A1.05,1.05,0,0,1,200.42,126.76Z" fill="#f56132"></path><path d="M152.38,149.66a1,1,0,0,1-.35-1.94l6-2.25a1,1,0,0,1,.7,1.87l-6,2.25A.84.84,0,0,1,152.38,149.66Z" fill="#f56132"></path><path d="M166.46,114.37a1,1,0,0,1-.72-.31l-4.13-4.31a1,1,0,0,1,1.44-1.38l4.13,4.31a1,1,0,0,1,0,1.41A1,1,0,0,1,166.46,114.37Z" fill="#f56132"></path><path d="M197.34,78.52a1,1,0,0,1-.5-1.87l5.91-3.38a1,1,0,0,1,1.37.37,1,1,0,0,1-.38,1.37l-5.91,3.37A1,1,0,0,1,197.34,78.52Z" fill="#f56132"></path><path d="M235.35,116.34a1,1,0,0,1-1-1v-8.23a1,1,0,1,1,2,0v8.23A1,1,0,0,1,235.35,116.34Z" fill="#f56132"></path><path d="M252.8,142.38a1,1,0,0,1-.62-.21,1.19,1.19,0,0,1-.19-.2c-.66-.47-3.69-2.11-6.4-3.5a1,1,0,0,1,.91-1.78c7.11,3.65,7.17,3.94,7.28,4.47a1,1,0,0,1-.19.85A1,1,0,0,1,252.8,142.38Zm-.83-1.55Zm.05-.06-.05.06Zm0,0Zm0,0h0Zm0,0Z" fill="#f56132"></path><path d="M220.68,152.24A1,1,0,0,1,220,152a1,1,0,0,1-.12-1.41l4.32-5.17a1,1,0,1,1,1.53,1.28l-4.32,5.17A1,1,0,0,1,220.68,152.24Z" fill="#f56132"></path><path d="M181.1,152.24a1,1,0,0,1-.83-.44,1,1,0,0,1,.27-1.38L186,146.7a1,1,0,1,1,1.12,1.66l-5.46,3.71A1,1,0,0,1,181.1,152.24Z" fill="#70cc40"></path><path d="M185.23,127.7a1,1,0,0,1-.94-.66l-2-5.39a1,1,0,1,1,1.88-.69l2,5.39a1,1,0,0,1-.6,1.28A.83.83,0,0,1,185.23,127.7Z" fill="#70cc40"></path><path d="M173.78,95.32a1,1,0,0,1-.91-.58,1,1,0,0,1,.49-1.33c5.58-2.58,6.19-2.17,6.6-1.9a1,1,0,0,1,.28,1.39,1,1,0,0,1-1.09.41,29.41,29.41,0,0,0-5,1.92A1.06,1.06,0,0,1,173.78,95.32Zm5.08-2.14Z" fill="#70cc40"></path><path d="M195.18,70.07a1,1,0,0,1-1-.71l-1.5-4.88a1,1,0,1,1,1.91-.58l1.5,4.88a1,1,0,0,1-.66,1.25A1,1,0,0,1,195.18,70.07Z" fill="#70cc40"></path><path d="M215.16,117.18a1,1,0,0,1-.38-.07l-5-2.07a1,1,0,0,1-.54-1.3,1,1,0,0,1,1.31-.54l5,2.06a1,1,0,0,1-.39,1.92Z" fill="#70cc40"></path><path d="M155.38,136.89l-.22,0-5.73-1.33a1,1,0,0,1-.75-1.21,1,1,0,0,1,1.2-.74l5.73,1.33a1,1,0,0,1-.23,2Z" fill="#70cc40"></path><path d="M235.35,153.14a1,1,0,0,1-.21-2l9.57-2a1,1,0,1,1,.42,2l-9.58,2Z" fill="#70cc40"></path><path d="M198.94,106.31A22.57,22.57,0,0,1,214,104.18a16.87,16.87,0,0,1,11.68,9.33" fill="#fff"></path><path d="M225.67,114.51a1,1,0,0,1-.92-.6,15.89,15.89,0,0,0-11-8.76,21.48,21.48,0,0,0-14.37,2,1,1,0,0,1-.9-1.79,23.51,23.51,0,0,1,15.72-2.21,17.9,17.9,0,0,1,12.37,9.92,1,1,0,0,1-.52,1.31A.91.91,0,0,1,225.67,114.51Z" fill="#093f68"></path></g></svg>